<svg version="1.1" id="Layer_1" xmlns="http://www.w3.org/2000/svg" xmlns:xlink="http://www.w3.org/1999/xlink" x="0px" y="0px"
	 width="100%" viewBox="0 0 1024 1024" enable-background="new 0 0 1024 1024" xml:space="preserve">
<path fill="#000000" opacity="1.000000" stroke="none" 
	d="
M589.697021,897.924194 
	C560.649414,901.649597 531.926697,903.778931 503.078827,903.057556 
	C438.459534,901.441956 375.585175,890.811890 315.803711,865.276672 
	C280.403473,850.155762 247.881912,830.527222 221.266388,802.188477 
	C202.816299,782.543823 189.000961,760.198914 182.906540,733.667114 
	C174.409576,696.675964 183.021576,663.065674 203.824295,632.089111 
	C213.832840,617.185730 226.112442,604.277527 239.932724,592.867798 
	C242.672318,590.606079 243.667023,588.638123 243.020416,584.872925 
	C239.543671,564.627625 238.722565,544.211731 240.248703,523.738159 
	C239.210480,522.726257 238.330200,523.554138 237.498611,523.938477 
	C198.346954,542.034851 161.954849,564.304016 131.642899,595.408020 
	C111.629372,615.944519 95.853172,639.327026 87.502045,667.071533 
	C74.811501,709.232666 82.601807,748.398987 105.920448,784.909241 
	C125.483055,815.538574 152.325546,838.785217 182.393204,858.584229 
	C207.539520,875.142700 234.381180,888.407532 262.294617,899.597595 
	C270.433258,902.860229 274.880066,909.636536 274.061584,916.838013 
	C273.181763,924.578979 267.908966,930.204102 260.127808,931.885071 
	C256.853119,932.592529 253.787491,931.859131 250.853210,930.684631 
	C196.140991,908.784912 145.865356,879.912720 105.118790,836.496155 
	C78.537064,808.172607 58.945518,775.848145 51.492878,737.149536 
	C43.991962,698.200256 50.433426,661.311890 68.864204,626.431946 
	C90.523727,585.441833 123.212357,554.751709 160.933456,528.911194 
	C186.738373,511.233704 214.357864,496.869171 243.343216,485.192108 
	C248.597473,483.075378 251.477737,480.014313 253.438263,474.714172 
	C265.583282,441.881042 282.907471,411.699280 301.633911,382.273987 
	C333.511719,332.183655 369.545776,285.030762 404.351990,237.009857 
	C427.825043,204.624924 451.282196,172.212952 470.473083,137.012405 
	C479.815430,119.876366 488.190125,102.295525 491.157898,82.673950 
	C491.816681,78.318253 491.572083,74.101616 490.911072,69.783379 
	C489.471680,60.379662 492.500854,53.651955 499.376526,50.243938 
	C506.388367,46.768417 513.475159,48.294064 520.282654,54.771809 
	C521.851685,56.264847 523.396973,57.785580 524.900635,59.344227 
	C541.019165,76.052475 555.262390,94.326691 569.082153,112.914818 
	C623.880920,186.621384 672.713806,264.057098 713.635132,346.344879 
	C734.202026,387.702454 752.339783,430.084625 764.218689,474.884521 
	C764.990051,477.793854 766.797058,478.827881 769.233337,479.765320 
	C800.420410,491.765442 830.371216,506.249207 858.401550,524.529785 
	C895.099548,548.463196 927.260681,577.082458 950.483337,614.744080 
	C970.177002,646.682373 979.910706,681.340271 977.132019,718.960327 
	C975.021301,747.536377 965.644409,773.896851 950.638977,798.259521 
	C927.982178,835.044922 896.811523,863.283997 861.033569,886.730042 
	C813.460327,917.905701 761.287842,938.578552 706.572205,953.178223 
	C669.531006,963.061829 631.890625,969.678833 593.720825,973.474487 
	C566.674500,976.163940 539.604065,977.719788 512.430603,977.340637 
	C504.765259,977.233704 498.501862,972.055847 496.909241,964.864624 
	C495.192871,957.114319 498.854187,949.405518 505.842590,946.023071 
	C507.830994,945.060669 509.912506,944.674683 512.122986,944.634155 
	C534.602539,944.222351 557.088745,943.682434 579.481934,941.611511 
	C659.562988,934.205811 736.825378,916.263977 808.672607,878.870605 
	C843.798706,860.588867 875.982666,838.203796 902.233337,808.123840 
	C921.252258,786.330566 935.567749,761.964844 941.611084,733.346252 
	C948.938477,698.647278 942.239563,666.235352 924.944824,635.736206 
	C907.389038,604.776794 882.118164,581.093506 853.414490,560.754395 
	C829.935364,544.117310 804.613525,530.778076 778.279358,519.296997 
	C776.942688,518.714233 775.516296,518.337341 774.104553,517.855408 
	C772.734741,520.123535 773.220276,522.341553 773.452087,524.389282 
	C775.452332,542.058411 774.223572,559.648438 771.963318,577.169312 
	C771.517090,580.628784 772.543579,582.278564 775.038635,584.137085 
	C796.361084,600.019470 814.818604,618.587952 828.288086,641.732910 
	C830.871094,646.171448 833.628357,650.518616 833.440125,656.079773 
	C833.181458,663.717529 829.059326,669.485657 821.783691,671.661499 
	C814.550720,673.824585 807.113647,671.082581 803.114441,664.661743 
	C800.737305,660.845215 798.632812,656.856262 796.195862,653.080261 
	C787.534241,639.659546 776.592346,628.311340 764.592590,618.318604 
	C720.254395,735.167847 638.518433,801.926147 511.549896,808.645386 
	C384.506775,806.283936 300.653290,742.460754 252.134094,627.102417 
	C248.729996,628.952026 245.930771,632.701355 242.893173,636.059326 
	C228.794296,651.645325 218.157715,669.213562 214.412491,690.160095 
	C209.569336,717.247131 216.712448,741.614624 232.475311,763.745667 
	C248.655777,786.463074 270.063721,803.248596 293.844574,817.191345 
	C334.910065,841.268066 379.622925,854.866882 426.289886,862.751099 
	C460.225494,868.484253 494.431854,870.776428 528.773315,869.572937 
	C595.520325,867.233704 659.993408,854.904419 719.944275,823.895630 
	C730.023499,818.682373 739.493347,812.458496 749.117126,806.476990 
	C756.744812,801.736084 766.504089,803.883789 771.314148,810.878113 
	C776.478088,818.387268 775.110657,827.852417 767.972900,833.730835 
	C766.819031,834.681152 765.550171,835.496704 764.305786,836.331726 
	C732.027527,857.993835 696.603943,872.646729 659.414673,883.348511 
	C636.680237,889.890747 613.543518,894.525513 589.697021,897.924194 
M287.909973,624.658386 
	C303.884918,665.895691 329.194763,700.299194 364.412781,727.008240 
	C418.111450,767.732788 478.680328,783.089722 545.120728,772.295959 
	C601.296082,763.169922 648.151245,736.214478 685.202087,692.971252 
	C717.937134,654.765015 736.139893,610.166199 740.533630,560.123108 
	C742.630371,536.241638 739.883606,512.621277 734.074463,489.346100 
	C723.041199,445.139801 705.241455,403.525543 685.029541,362.933044 
	C644.608276,281.753540 596.761353,205.104889 542.594238,132.395416 
	C535.670227,123.101219 528.365173,114.090858 520.628174,104.168694 
	C517.042358,114.786705 513.696106,124.319916 509.393280,133.476761 
	C492.231232,169.999329 469.394928,203.019928 446.154236,235.772049 
	C412.417328,283.315948 376.682556,329.430389 344.255249,377.911163 
	C322.096619,411.039703 301.041321,444.816406 286.058502,481.952057 
	C277.654053,502.782867 271.776459,524.274475 272.513824,546.962402 
	C273.372986,573.396729 278.137604,599.155029 287.909973,624.658386 
z"/>
<path fill="#000000" opacity="1.000000" stroke="none" 
	d="
M658.684387,546.905029 
	C661.694092,521.723938 661.464905,496.984100 658.957336,472.234589 
	C658.170288,464.465973 657.062988,456.706421 656.768616,448.917542 
	C656.444885,440.352570 662.618958,433.570984 670.642273,432.724548 
	C679.790710,431.759430 687.855713,437.043732 689.127258,445.727325 
	C696.677979,497.292969 696.576111,548.529907 681.319336,598.927063 
	C672.040771,629.576599 657.059631,656.968811 633.556213,679.135498 
	C609.886414,701.459045 581.571655,714.792236 549.843994,721.079468 
	C542.541931,722.526428 535.668030,721.114075 531.322754,714.344971 
	C527.519226,708.419983 527.377197,702.081360 531.138550,695.951233 
	C533.522156,692.066406 537.112244,689.655396 541.545349,688.777527 
	C602.463501,676.713684 637.125671,637.939941 652.609802,579.660583 
	C655.429199,569.049072 657.335388,558.253296 658.684387,546.905029 
z"/>
</svg>